<?xml version="1.0" ?><svg style="enable-background:new 0 0 61 54.34;" version="1.1" viewBox="0 0 61 54.34" xml:space="preserve" xmlns="http://www.w3.org/2000/svg" xmlns:xlink="http://www.w3.org/1999/xlink"><style type="text/css">
	.st0{fill:#FFFFFF;stroke:#000000;stroke-miterlimit:10;}
	.st1{fill:#FFFFFF;}
	.st2{fill:none;stroke:#000000;stroke-miterlimit:10;}
	.st3{fill:none;stroke:#000000;stroke-linecap:round;stroke-miterlimit:10;}
	.st4{fill:none;stroke:#000000;stroke-linejoin:round;stroke-miterlimit:10;}
	.st5{fill:none;stroke:#000000;stroke-linecap:round;stroke-linejoin:round;stroke-miterlimit:10;}
</style><g id="Layer_2"/><g id="Layer_1"/><g id="Layer_3"><g><path d="M41.64,11.43c3.15,0,5.72-2.56,5.72-5.72S44.79,0,41.64,0s-5.72,2.57-5.72,5.72S38.49,11.43,41.64,11.43z M41.64,1    c2.6,0,4.72,2.12,4.72,4.72c0,2.6-2.12,4.72-4.72,4.72s-4.72-2.12-4.72-4.72C36.92,3.12,39.04,1,41.64,1z"/><path d="M44.95,31.68v-6.75l1.14,0.81l4.6,2.36c0.35,0.18,0.74,0.27,1.12,0.27c0.27,0,0.54-0.04,0.81-0.14    c0.64-0.22,1.15-0.68,1.43-1.3c0.53-1.16,0.11-2.51-0.99-3.16l-4.69-2.75l-3.47-5.2c-0.26-2.43-2.3-4.33-4.79-4.33h-3.76    c-0.86,0-1.59,0.57-1.83,1.35L24.38,27c-0.67,0.94-0.58,2.21,0.15,3.04l-5.72,6.92l-5.84-4.62c-1-0.83-2.48-0.69-3.31,0.3    L0.54,43.61c-0.4,0.48-0.59,1.09-0.53,1.71c0.06,0.63,0.35,1.19,0.85,1.6l4.22,3.31C4.91,50.6,4.8,51.01,4.8,51.44    c0,1.6,1.3,2.9,2.9,2.9s2.9-1.3,2.9-2.9c0-0.78-0.31-1.49-0.82-2.01l15.55-18.79c0.33,0.15,0.68,0.24,1.04,0.24    c0.7,0,1.4-0.3,1.89-0.88l6.14-7.35v9.06l-3.07,8.41v-2.94c0-0.28-0.22-0.5-0.5-0.5s-0.5,0.22-0.5,0.5v3.11    c0,0.28,0.22,0.5,0.5,0.5c0.11,0,0.21-0.04,0.29-0.11l-0.11,0.3l-5.87,5.92c-1.19,1.2-1.32,3.06-0.32,4.41    c0.56,0.76,1.38,1.24,2.32,1.35c0.94,0.11,1.85-0.15,2.58-0.76l7.1-5.88l2.95-6.6l8.64,12c0.63,0.88,1.63,1.35,2.64,1.35    c0.53,0,1.07-0.13,1.56-0.4c0.76-0.42,1.31-1.11,1.56-1.94s0.15-1.71-0.27-2.48L44.95,31.68z M44.95,17.72l2.72,4.07l4.89,2.86    c0.65,0.38,0.91,1.19,0.59,1.88c-0.17,0.37-0.47,0.64-0.85,0.77c-0.38,0.13-0.79,0.1-1.15-0.08l-4.54-2.33l-1.66-1.19V17.72z     M7.7,53.34c-1.05,0-1.9-0.85-1.9-1.9c0-1.05,0.85-1.9,1.9-1.9s1.9,0.85,1.9,1.9C9.6,52.49,8.75,53.34,7.7,53.34z M8.97,48.85    c-0.39-0.19-0.81-0.31-1.27-0.31c-0.8,0-1.53,0.33-2.06,0.86l-4.16-3.26c-0.28-0.23-0.45-0.55-0.48-0.91    c-0.03-0.36,0.08-0.71,0.31-0.98l9.13-10.97c0.48-0.57,1.33-0.65,1.91-0.17l0.97,0.77l-8.8,10.62c-0.18,0.21-0.15,0.53,0.07,0.7    c0.09,0.08,0.21,0.12,0.32,0.12c0.14,0,0.29-0.06,0.39-0.18l8.81-10.64l4.07,3.23L8.97,48.85z M35.41,13.44    c0-0.06,0.02-0.11,0.03-0.17l0.38-0.54l-0.04-0.03c0.16-0.12,0.34-0.2,0.55-0.2h3.76c2.12,0,3.85,1.73,3.85,3.85V31.3h-8.54V13.44    z M27.49,29.36c-0.49,0.59-1.36,0.69-1.98,0.24c-0.64-0.47-0.78-1.37-0.32-2.02l9.21-12.87v6.38L27.49,29.36z M36.01,45.41    l-6.92,5.73c-0.51,0.42-1.15,0.62-1.82,0.53c-0.66-0.08-1.24-0.42-1.64-0.95c-0.71-0.96-0.61-2.27,0.22-3.11l5.94-5.99l3.25-8.75    l4.05,5.63L36.01,45.41z M53.22,50.17c-0.17,0.58-0.55,1.06-1.08,1.34c-1,0.55-2.25,0.26-2.91-0.66L35.88,32.3h8.27l8.88,16.15    C53.32,48.98,53.39,49.59,53.22,50.17z"/><path d="M20.94,36.69c-0.28,0-0.5,0.22-0.5,0.5v3.11c0,0.28,0.22,0.5,0.5,0.5s0.5-0.22,0.5-0.5v-3.11    C21.44,36.91,21.22,36.69,20.94,36.69z"/><path d="M26.39,40.29v-3.11c0-0.28-0.22-0.5-0.5-0.5s-0.5,0.22-0.5,0.5v3.11c0,0.28,0.22,0.5,0.5,0.5S26.39,40.57,26.39,40.29z"/><path d="M50.11,37.19v3.11c0,0.28,0.22,0.5,0.5,0.5s0.5-0.22,0.5-0.5v-3.11c0-0.28-0.22-0.5-0.5-0.5S50.11,36.91,50.11,37.19z"/><path d="M55.56,36.69c-0.28,0-0.5,0.22-0.5,0.5v3.11c0,0.28,0.22,0.5,0.5,0.5s0.5-0.22,0.5-0.5v-3.11    C56.06,36.91,55.83,36.69,55.56,36.69z"/><path d="M60.5,36.69c-0.28,0-0.5,0.22-0.5,0.5v3.11c0,0.28,0.22,0.5,0.5,0.5s0.5-0.22,0.5-0.5v-3.11    C61,36.91,60.78,36.69,60.5,36.69z"/></g></g></svg>