<?xml version="1.0" ?><!DOCTYPE svg  PUBLIC '-//W3C//DTD SVG 1.1//EN'  'http://www.w3.org/Graphics/SVG/1.1/DTD/svg11.dtd'><svg enable-background="new 0 0 512 512" height="512px" id="Layer_1" version="1.1" viewBox="0 0 512 512" width="512px" xml:space="preserve" xmlns="http://www.w3.org/2000/svg" xmlns:xlink="http://www.w3.org/1999/xlink"><g><path clip-rule="evenodd" d="M496.01,346.532c-3.925-2.74-6.189-6.17-6.649-11.205   c-0.601-6.605-1.99-13.141-3.23-19.675c-0.26-1.386-1.01-3.065-2.095-3.855c-10.535-7.725-21.155-15.325-31.815-22.875   c-3.02-2.135-6.25-3.975-9.38-5.95c14.641,3.806,29.021,2.476,43.44-0.93c1.58,7.59,2.93,14.885,4.7,22.08   c0.52,2.095,1.859,4.38,3.52,5.705c2.77,2.205,6.09,3.71,9.18,5.51c0.16-0.25,0.32-0.495,0.48-0.75   c-1.62-1.275-3.21-2.595-4.87-3.82c-3.29-2.42-5.105-5.45-5.57-9.689c-0.739-6.71-2.069-13.355-3.239-20.011   c-0.775-4.385-0.931-4.13-5.186-3.465c-8.185,1.271-16.415,2.585-24.67,3c-5.295,0.271-10.665-1.029-16-1.63   c21.435-2.7,37.415-15.33,53.87-27.95c0.27,7.47,0.425,14.51,0.845,21.53c0.12,1.91,0.521,4.25,1.71,5.54   c3.17,3.44,6.84,6.425,10.311,9.59c0.215-0.229,0.43-0.46,0.64-0.689c-2.3-2.65-4.59-5.301-6.9-7.936   c-1.84-2.095-2.534-4.435-2.479-7.295c0.149-7.755,0.02-15.51-0.135-23.265c-0.025-1.295-0.745-2.575-1.141-3.865   c-1.319,0.54-2.859,0.8-3.93,1.655c-12.51,9.99-25.295,19.545-40.521,25.104c-3.229,1.181-6.664,1.806-9.994,2.69   c-0.33-0.22-0.66-0.44-0.98-0.66c6.271-5.08,0.811-9.77,0.58-14.77c-3.47,1.899-7.54,0.21-9.4-3.455   c-2.04,0.965-4.17,1.725-6.02,2.93c-1.21,0.79-2.25,2.095-2.91,3.39c-0.78,1.521-1.07,3.28-1.7,5.355   c-1.25-1.455-2.56-2.46-3.189-3.79c-3.221-6.9-7.346-13.61-9.13-20.89c-2.74-11.14-3.79-22.69-5.655-34.05   c-0.19-1.175-0.795-2.6-1.695-3.205c-0.479-0.33-2.18,0.615-2.97,1.36c-5.49,5.16-11.061,10.255-16.23,15.725   c-2.84,3.005-6.034,4.28-9.965,4.385c-2.745,0.075-5.484,0.225-8.225,0.345c3.145,1.12,6.3,1.62,9.479,1.94   c3.92,0.405,7.37-0.46,10.25-3.51c2.511-2.645,5.38-4.945,8.101-7.39c2.31-2.08,4.63-4.135,7.2-6.425   c4.06,32.59,5.635,37.645,17.81,57.456c-0.2-0.016-0.425,0.024-0.58-0.061c-0.49-0.26-0.95-0.56-1.415-0.87   c-11.314-7.375-19.465-17.61-26.09-29.16c-1.35-2.355-2.605-2.93-4.955-1.235c-5.93,4.275-12.104,8.225-17.93,12.635   c-2.8,2.12-5.62,2.87-8.96,2.45c-2.38-0.3-4.775-0.53-7.165-0.795c1.154,1.015,2.364,1.565,3.6,2.035   c5.205,2.005,10.125,2.45,15.075-1.16c5.345-3.9,11.09-7.255,16.82-10.955c8.18,13.055,17.22,24.95,31.3,31.979   c-1.01-0.005-1.95-0.194-2.896-0.37c-16.185-3.06-32.364-6.14-48.564-9.13c-0.95-0.175-2.23,0.096-3.03,0.646   c-5.005,3.42-9.99,6.89-14.85,10.535c-4.551,3.41-9.235,6.005-15.21,4.604c-1.46-0.345-2.96-0.505-4.44-0.755   c2.06,1.41,4.21,2.295,6.42,2.97c4.11,1.25,7.95,1.085,11.646-1.67c3.989-2.975,8.185-5.705,12.484-8.215   c2.766-1.61,6-3.939,8.806-3.67c8.685,0.83,17.274,2.68,25.869,4.28c5.391,1.005,10.735,2.255,16.426,3.465   c-4.87,4.32-9.641,7.135-15.936,7.32c-5.845,0.175-11.675,2.005-17.484,1.88c-9.12-0.195-14.95,3.915-18.721,11.725   c-1.465,3.03-4.04,4.195-7.12,4.73c-3.13,0.54-6.255,1.135-9.38,1.71c0.03,0.314,0.07,0.63,0.101,0.949   c4.27-0.189,8.58-0.13,12.8-0.699c1.77-0.24,4.1-1.405,4.92-2.86c4.975-8.805,12.72-11.765,22.29-11.565   c2.085,0.046,4.18-0.46,6.27-0.71c2.79-0.335,5.591-0.665,8.381-0.994c0.274,0.305,0.55,0.609,0.824,0.909   c-8.274,4.66-11.71,12.48-14.345,20.75c0.19,0.025,0.67,0.07,1.405,0.15c-4.205,10.12-4.105,20.495-2.115,30.9   c0.17-0.085,0.61-0.306,1.055-0.521c1.865,6.795,4.415,11.05,8.605,13.265c2.37,1.261,4.95,2.16,7.57,3.006   c6.34,2.06,11.3-0.91,16.585-3.131c1.845-0.774,4.05-1.244,5.385-2.564c3.43-3.42,6.72-7.055,9.585-10.95   c2.88-3.915,5.175-8.265,7.645-12.285c-0.194-0.225,0.101,0.11,0.69,0.79c1.39-3.314,3.1-6.265,3.845-9.444   c0.726-3.061,0.455-6.351,0.615-9.335c2.755,3.595,5.35,7.805,8.745,11.215c5.875,5.904,8.145,12.415,5.765,20.55   c-0.484,1.665-0.47,4.11,0.43,5.43c2.756,4.021,6.061,7.67,9.146,11.465c0.325-0.255,0.645-0.515,0.965-0.765   c-1.52-2.235-2.96-4.535-4.59-6.69c-2.49-3.295-3.42-6.729-2.135-10.835c0.825-2.619,1.29-5.42,1.435-8.17   c0.09-1.705-0.24-3.8-1.205-5.13c-4.545-6.28-9.005-12.694-14.225-18.405c-4.73-5.18-5.146-11.274-6.03-18.454   c11.8,8.59,23.01,16.689,34.13,24.92c0.915,0.675,1.48,2.14,1.74,3.34c1.285,5.96,2.77,11.905,3.52,17.939   c1.056,8.426,6.87,11.65,13.851,13.92C498.525,348.547,497.32,347.457,496.01,346.532z" fill-rule="evenodd"/><g><path clip-rule="evenodd" d="M0,159.457c4.525-5.215,6.28-5.6,12.97-2.825c7.7,3.2,15.35,6.54,23.15,9.475    c1.61,0.605,4.25,0.355,5.63-0.62c39.49-27.8,73.11-61.51,101.13-100.845c1.55-2.175,1.55-3.88,0.54-6.2    c-3.5-8.06-7-16.145-10.045-24.39c-0.845-2.295-0.96-5.61,0.115-7.66c0.975-1.855,4.2-3.84,6.115-3.565    c2.385,0.345,5.405,2.48,6.475,4.665c3.67,7.47,6.84,15.215,9.715,23.035c1.485,4.035,3.56,5.77,7.985,6.355    c24.25,3.22,48.55,6.85,73.015,5.7c23.165-1.095,46.24-4.015,69.335-6.34c1.335-0.135,3.01-1.89,3.63-3.29    c3.55-8.045,6.78-16.23,10.21-24.325c2.205-5.21,5.9-7.22,9.78-5.505c4.41,1.95,5.81,5.895,3.72,11.015    c-3.39,8.28-6.989,16.475-10.21,24.82c-0.56,1.475-0.29,3.93,0.615,5.215c28.055,39.675,61.96,73.55,101.645,101.59    c1.24,0.88,3.73,0.91,5.24,0.32c8.2-3.17,16.271-6.685,24.405-10.025c5.195-2.13,9.325-0.765,11.04,3.525    c1.62,4.055-0.335,7.79-5.365,9.91c-8.1,3.415-16.29,6.635-24.32,10.22c-1.47,0.655-3.14,2.535-3.359,4.05    c-3.726,24.945-7.45,50-6.29,75.235c1.07,23.31,4.01,46.54,6.33,69.79c0.135,1.335,1.859,3.035,3.25,3.645    c8.04,3.561,16.21,6.811,24.319,10.226c5.04,2.125,7.046,5.824,5.48,9.859c-1.665,4.29-5.86,5.721-11,3.62    c-8.14-3.33-16.29-6.645-24.345-10.175c-2.415-1.06-4.045-0.695-6.136,0.8c-39.159,27.985-72.729,61.53-100.71,100.695    c-1.649,2.314-1.729,4.064-0.63,6.564c3.48,7.91,6.721,15.926,9.99,23.926c2.1,5.159,0.686,9.324-3.62,11    c-4.04,1.58-7.729-0.415-9.854-5.455c-3.365-7.965-6.771-15.91-9.931-23.955c-1.015-2.585-2.444-3.605-5.199-4.07    c-45.456-7.66-90.905-7.93-136.525-1.16c-7.8,1.16-12.12,3.851-14.27,11.41c-1.68,5.94-4.61,11.53-7.03,17.26    c-2.375,5.63-6.13,7.705-10.4,5.811c-4.33-1.92-5.32-5.795-2.93-11.596c3.24-7.85,6.405-15.729,9.79-23.515    c1.015-2.335,0.97-4.015-0.57-6.18c-27.86-39.061-61.245-72.575-100.29-100.465c-2.54-1.815-4.515-2.12-7.37-0.835    c-7.32,3.3-14.81,6.244-22.23,9.319c-6.72,2.785-8.43,2.41-12.99-2.795c0-1.819,0-3.645,0-5.47c2.53-1.78,4.86-3.995,7.63-5.25    c7.3-3.325,14.75-6.335,22.22-9.245c2.56-1,3.64-2.365,4.115-5.165c8.125-47.835,8.125-95.65-0.255-143.435    c-0.29-1.665-1.94-3.73-3.485-4.435c-7.435-3.385-15.135-6.2-22.575-9.57c-2.77-1.25-5.11-3.455-7.65-5.22    C0,163.107,0,161.282,0,159.457z M418.01,324.842c-7.74-46.18-7.689-91.47-0.024-137.515c-8.865,3.685-16.735,7.165-24.775,10.2    c-3,1.13-4.354,2.93-4.75,5.84c-1.74,12.91-4.08,25.775-5.08,38.74c-1.76,22.82,0.43,45.455,5.46,67.78    c0.335,1.505,1.61,3.385,2.95,3.98C400.08,317.547,408.51,320.912,418.01,324.842z M164.59,71.427    c3.75,9.035,7.225,16.925,10.27,24.985c1.075,2.84,2.76,4.09,5.505,4.515c9.135,1.42,18.225,3.19,27.395,4.235    c26.61,3.02,53,1.285,79.129-4.46c1.45-0.32,3.405-1.225,3.926-2.385c3.814-8.56,7.329-17.25,11.345-26.865    C256.16,79.102,210.875,79.152,164.59,71.427z M412.19,338.271c-9.75-4.05-18.24-7.67-26.83-11.034    c-1.105-0.431-2.96,0.055-4.061,0.76c-30.96,19.72-56.31,45.085-76.06,76.03c-0.601,0.939-1.355,2.404-1.03,3.229    c3.54,8.96,7.29,17.84,11.35,27.65C342.62,397.092,374.4,365.356,412.19,338.271z M412.2,173.902    c-37.87-27.14-69.601-58.9-96.646-96.63c-4.04,9.745-7.725,18.5-11.229,27.32c-0.345,0.87,0.165,2.36,0.74,3.27    c19.814,31.08,45.244,56.57,76.335,76.385c1.01,0.64,2.689,1.16,3.675,0.775C393.79,181.592,402.42,177.952,412.2,173.902z     M49.15,187.507c7.31,45.995,7.3,91.295,0,137.18c8.45-3.524,16.175-6.975,24.08-9.935c3.15-1.18,4.6-2.99,5.01-6.12    c1.73-13.22,4.09-26.39,5.13-39.66c1.76-22.38-0.71-44.545-5.475-66.435c-0.355-1.63-1.73-3.675-3.175-4.32    C66.58,194.562,58.27,191.277,49.15,187.507z M301.975,440.307c-3.614-8.689-7.064-16.444-10.034-24.37    c-1.131-3.024-2.94-4.305-5.841-4.694c-12.909-1.745-25.77-4.07-38.74-5.115c-22.825-1.845-45.44,0.58-67.78,5.435    c-1.41,0.306-3.25,1.355-3.78,2.556c-3.745,8.42-7.195,16.975-11.02,26.149C210.66,433.027,255.945,432.952,301.975,440.307z     M151.96,433.057c3.33-8.035,6.93-16.51,10.27-25.09c0.425-1.09-0.17-2.945-0.89-4.064c-19.755-30.896-45.085-56.235-76.02-75.94    c-1.01-0.65-2.68-1.22-3.65-0.835c-8.675,3.415-17.265,7.06-25.295,10.39c16.895,14.985,34.385,29.096,50.195,44.9    C122.505,398.352,136.77,415.962,151.96,433.057z M151.35,77.692c-27.29,37.43-59.095,69.165-96.345,96.38    c9.345,3.895,17.685,7.46,26.115,10.785c1.13,0.445,3.01,0.085,4.09-0.605c31.065-19.79,56.505-45.235,76.3-76.29    c0.69-1.09,1.085-2.96,0.645-4.085C158.835,95.437,155.27,87.092,151.35,77.692z M93.585,306.237    c9.225-3.846,17.505-7.186,25.655-10.815c1.23-0.545,2.27-2.32,2.705-3.74c7.295-23.72,7.235-47.475,0.03-71.21    c-0.375-1.23-0.945-2.96-1.895-3.38c-8.51-3.745-17.13-7.245-26.52-11.15C100.035,239.657,99.99,272.502,93.585,306.237z     M373.01,206.012c-9.005,3.73-17.16,6.98-25.175,10.555c-1.365,0.61-2.59,2.45-3.065,3.975c-7.31,23.71-7.279,47.46-0.02,71.185    c0.37,1.23,0.97,2.931,1.93,3.355c8.49,3.729,17.09,7.225,26.365,11.085C366.705,272.422,366.76,239.582,373.01,206.012z     M183.29,116.422c3.76,9.055,7.16,17.445,10.8,25.72c0.49,1.125,2.12,2.065,3.42,2.465c23.86,7.35,47.76,7.39,71.63,0.035    c1.305-0.405,2.979-1.295,3.47-2.405c3.659-8.305,7.06-16.72,10.83-25.805C249.89,122.697,216.91,122.742,183.29,116.422z     M283.535,395.867c-3.845-9.205-7.195-17.485-10.835-25.636c-0.55-1.234-2.31-2.29-3.726-2.725    c-23.714-7.295-47.475-7.28-71.205-0.025c-1.33,0.41-3.09,1.205-3.57,2.296c-3.69,8.375-7.12,16.864-10.94,26.074    C216.915,389.447,249.76,389.432,283.535,395.867z M296.91,389.952c19.29-28.075,42.43-51.155,70.32-70.34    c-9-3.756-17.176-7.25-25.445-10.516c-1.16-0.46-2.985-0.149-4.155,0.465c-22.11,11.636-39.07,28.48-50.675,50.62    c-0.67,1.28-0.975,3.28-0.475,4.565C289.68,372.917,293.16,380.977,296.91,389.952z M169.77,122.077    c-19.28,28.295-42.48,51.315-70.35,70.425c8.975,3.76,17.025,7.26,25.2,10.43c1.39,0.535,3.565,0.095,4.98-0.65    c21.83-11.51,38.53-28.225,50.03-50.065c0.69-1.31,1.19-3.3,0.7-4.555C177.1,139.367,173.58,131.192,169.77,122.077z     M296.9,122.232c-3.73,8.915-7.221,16.97-10.391,25.15c-0.535,1.38-0.109,3.555,0.641,4.955    c10.784,20.1,25.779,36.11,45.619,47.66c5.065,2.945,9.131,3.87,14.521,1.02c6.14-3.245,12.8-5.505,19.92-8.48    C339.2,173.222,316.19,150.192,296.9,122.232z M169.79,390.066c3.82-9.194,7.37-17.5,10.66-25.914    c0.44-1.12-0.13-2.931-0.77-4.141c-11.6-21.965-28.39-38.78-50.4-50.325c-1.1-0.58-2.72-1.17-3.71-0.774    c-8.51,3.34-16.93,6.915-26.165,10.75C127.53,338.907,150.625,362.032,169.79,390.066z M201.67,160.687    c3.89,9.36,7.21,17.455,10.66,25.505c0.43,1.015,1.37,2.025,2.33,2.57c12.35,6.96,24.77,7.075,37.18,0.14    c0.885-0.49,1.93-1.185,2.3-2.05c3.56-8.32,6.985-16.695,10.93-26.21C243.71,166.192,223.205,166.132,201.67,160.687z     M328.745,287.752c-5.465-21.425-5.436-41.94-0.015-63.315c-9.4,3.88-17.766,7.295-26.075,10.835    c-0.865,0.365-1.59,1.375-2.085,2.255c-6.915,12.395-6.88,24.815,0.05,37.2c0.43,0.766,0.985,1.71,1.72,2.021    C310.77,280.337,319.24,283.812,328.745,287.752z M278.51,345.722c11.181-18.689,25.67-33.29,44.556-44.479    c-9.29-3.835-17.761-7.386-26.296-10.78c-0.975-0.39-2.369-0.08-3.465,0.25c-12.91,3.854-21.364,12.26-25.255,25.145    c-0.409,1.341-0.54,3.065-0.04,4.315C271.29,328.477,274.77,336.702,278.51,345.722z M278.08,167.467    c-3.28,7.91-6.71,16-9.95,24.165c-0.505,1.27-0.54,2.985-0.149,4.31c3.875,13.3,12.539,21.87,25.88,25.64    c0.955,0.27,2.165,0.46,3.024,0.11c8.476-3.41,16.905-6.94,25.096-10.335c-8.226-6.725-16.75-12.675-23.99-19.915    C290.75,184.202,284.8,175.677,278.08,167.467z M137.95,287.812c9.45-3.939,17.555-7.284,25.615-10.734    c0.885-0.38,1.745-1.23,2.23-2.085c7.165-12.69,7.015-25.41-0.09-38.07c-0.41-0.735-1.175-1.45-1.94-1.775    c-8.205-3.48-16.445-6.875-25.765-10.74C143.38,245.737,143.45,266.262,137.95,287.812z M265.02,351.462    c-2.76-6.725-5.689-12.005-7.074-17.67c-2.265-9.285-8.896-12.62-17.045-14.59c-1.03-0.25-2.07-0.476-3.11-0.67    c-8.24-1.551-15.87,0.97-22.585,5.05c-2.98,1.805-4.365,6.479-6.105,10.035c-1.86,3.805-3.3,7.814-4.885,11.75    c-0.695,1.715-1.295,3.46-2.275,6.109C223.27,345.947,243.68,346.102,265.02,351.462z M188.63,167.412    c-6.655,8.165-12.57,16.715-19.805,23.94c-7.335,7.33-15.985,13.355-24.115,20c7.96,3.3,16.18,6.77,24.47,10.075    c1.11,0.445,2.66,0.325,3.86-0.025c13.26-3.91,21.865-12.55,25.695-25.84c0.345-1.195,0.365-2.73-0.085-3.86    C195.39,183.547,191.97,175.457,188.63,167.412z M188.17,345.822c3.77-9.056,7.17-17.15,10.49-25.28    c0.37-0.91,0.545-2.05,0.37-3.01c-2.235-12.275-15.285-25.28-27.205-27.186c-0.57-0.095-1.24-0.185-1.74,0.021    c-8.565,3.495-17.115,7.04-26.52,10.925C162.59,312.412,176.97,326.917,188.17,345.822z M214.32,256.077    c-10.71-4.435-20.125-8.335-29.14-12.07c0,8.22,0,16.085,0,24.175C194.25,264.412,203.67,260.502,214.32,256.077z M245.47,304.277    c-3.79-9.11-7.72-18.561-12.11-29.125c-4.415,10.68-8.32,20.135-12.04,29.125C229.62,304.277,237.355,304.277,245.47,304.277z     M233.385,236.992c4.335-10.46,8.19-19.76,11.975-28.9c-8.28,0-15.99,0-24.02,0C225.21,217.377,229.06,226.617,233.385,236.992z     M281.36,244.042c-9.295,3.88-18.581,7.765-28.9,12.08c10.545,4.359,19.79,8.189,28.9,11.96    C281.36,259.957,281.36,252.332,281.36,244.042z M207.86,298.492c3.66-8.88,7.51-18.215,11.36-27.551    c-0.32-0.225-0.635-0.449-0.95-0.67c-9.255,3.851-18.505,7.7-27.27,11.346C196.71,287.337,202.215,292.842,207.86,298.492z     M218.275,241.877c0.295-0.3,0.595-0.6,0.895-0.9c-3.84-9.255-7.685-18.505-11.315-27.25c-5.75,5.72-11.315,11.26-16.92,16.835    C199.88,234.262,209.08,238.072,218.275,241.877z M248.51,270.292c-0.325,0.265-0.65,0.53-0.97,0.8    c3.83,9.235,7.66,18.47,10.25,24.725c4.944-4.949,10.465-10.47,15.31-15.31C266.895,277.927,257.7,274.106,248.51,270.292z     M273,231.702c-4.805-4.87-10.33-10.475-15.21-15.425c-2.675,6.505-6.475,15.735-10.79,26.215    C257.67,238.067,266.87,234.247,273,231.702z" fill-rule="evenodd"/></g></g></svg>