<?xml version="1.0" standalone="no"?>
<!DOCTYPE svg PUBLIC "-//W3C//DTD SVG 20010904//EN"
 "http://www.w3.org/TR/2001/REC-SVG-20010904/DTD/svg10.dtd">
<svg version="1.0" xmlns="http://www.w3.org/2000/svg"
 width="493.000000pt" height="180.000000pt" viewBox="0 0 493.000000 180.000000"
 preserveAspectRatio="xMidYMid meet">

<g transform="translate(0.000000,180.000000) scale(0.100000,-0.100000)"
fill="#000000" stroke="none">
<path d="M724 1726 c-93 -24 -185 -66 -264 -119 -60 -40 -100 -78 -94 -89 9
-15 24 -8 17 8 -5 14 -3 15 14 6 11 -6 23 -9 26 -5 4 3 14 0 22 -7 9 -7 26
-13 39 -14 24 -1 96 -58 96 -76 0 -5 9 -14 19 -20 18 -9 19 -8 10 22 -12 43
-12 43 8 27 15 -13 15 -12 6 6 -17 33 -22 128 -9 154 12 21 14 22 29 6 10 -9
17 -13 17 -8 1 17 29 -43 30 -62 0 -17 2 -17 10 -5 8 12 10 11 10 -7 0 -12 5
-23 11 -25 7 -2 11 -41 12 -101 1 -80 3 -93 12 -69 5 16 18 37 28 46 16 17 17
16 18 -1 0 -11 5 -5 12 14 14 36 27 53 27 34 0 -7 9 -3 20 10 10 13 19 20 20
15 0 -5 7 -3 15 4 8 7 15 9 15 5 0 -4 11 0 25 9 30 19 31 15 8 -22 l-18 -27
33 28 c37 30 63 37 41 11 -12 -15 -11 -16 11 -10 l25 7 -25 -21 c-24 -21 -24
-21 -2 -15 13 4 22 2 22 -4 0 -6 -4 -11 -10 -11 -5 0 -10 -6 -10 -14 0 -8 -12
-19 -27 -24 -28 -10 -28 -10 -3 -11 22 -1 20 -4 -18 -28 -45 -29 -52 -43 -24
-44 11 0 7 -4 -10 -10 -15 -6 -30 -19 -33 -30 -4 -10 -12 -19 -18 -19 -7 0 -6
-4 3 -10 8 -5 23 -7 33 -4 10 3 47 7 84 8 50 2 70 -1 82 -13 9 -9 27 -21 41
-28 23 -11 20 -12 -30 -14 -30 -1 -44 -3 -30 -6 14 -2 39 -6 56 -8 17 -3 40
-13 51 -23 22 -19 47 -82 33 -82 -5 0 -7 -7 -4 -15 4 -9 0 -15 -10 -15 -9 0
-16 4 -16 8 0 4 -9 8 -21 9 -12 1 -27 10 -35 20 -8 10 -13 13 -14 6 0 -13 -57
14 -95 46 -19 15 -19 15 -6 -2 13 -17 12 -18 -15 -12 -16 4 -42 16 -57 27
l-29 20 12 -21 c11 -22 1 -28 -17 -10 -26 26 -6 -19 24 -56 17 -20 34 -46 36
-56 8 -28 -18 -23 -45 9 -29 34 -75 67 -108 77 l-25 7 21 -23 c12 -13 31 -46
43 -74 13 -27 28 -60 34 -72 6 -13 7 -26 4 -30 -4 -3 -2 -12 4 -19 6 -8 8 -26
4 -44 l-7 -31 -29 41 c-16 22 -29 46 -29 54 0 8 -3 16 -7 18 -5 2 -19 24 -33
51 -23 44 -40 60 -40 37 0 -5 -8 -10 -17 -10 -14 0 -25 -22 -46 -88 -15 -48
-41 -114 -57 -147 -16 -33 -30 -63 -30 -66 0 -3 15 -14 33 -24 l33 -17 180 60
c233 80 373 106 514 99 114 -6 221 -32 302 -73 90 -45 123 -17 134 112 28 333
-177 675 -491 820 -169 78 -380 96 -561 50z"/>
<path d="M284 1447 c-159 -185 -227 -473 -172 -732 6 -27 12 -51 13 -53 1 -2
33 13 71 33 58 30 82 37 154 41 47 3 105 1 130 -4 30 -7 48 -8 56 -1 35 29
136 279 114 279 -13 0 -70 -63 -70 -77 0 -15 -32 -25 -53 -18 -20 8 -27 61
-11 83 16 20 18 36 4 27 -18 -11 -11 27 7 41 10 7 15 16 11 19 -4 4 -26 -9
-49 -29 -24 -20 -45 -33 -48 -28 -5 7 -26 8 -33 3 -2 -2 -16 -4 -32 -6 -16 -2
-33 -10 -37 -17 -7 -10 -9 -10 -9 2 -1 11 -4 10 -15 -4 -15 -20 -18 -16 -16
19 1 16 -2 15 -14 -7 -9 -16 -19 -29 -23 -29 -11 -2 -45 -2 -64 -1 -25 3 -22
23 4 30 21 5 21 6 2 13 -18 6 -17 8 6 17 14 6 21 11 15 11 -27 2 53 51 92 57
31 4 41 9 32 15 -14 9 43 14 120 12 20 0 41 7 52 18 19 19 18 19 -23 14 -41
-5 -41 -5 -23 15 22 24 9 27 -17 3 -18 -16 -18 -16 -12 0 7 20 -6 23 -24 5 -9
-9 -12 -9 -12 2 0 13 -2 13 -11 0 -8 -12 -9 -7 -6 18 2 17 0 32 -5 32 -4 0 -8
-17 -8 -39 0 -30 -4 -38 -17 -36 -32 3 -54 17 -49 31 3 7 -3 15 -12 17 -11 3
-6 7 16 12 41 10 52 25 17 25 -15 0 -24 4 -20 10 3 6 0 10 -7 10 -7 1 -2 7 11
14 18 10 20 15 10 19 -8 3 -5 6 9 6 12 1 38 -6 57 -13 48 -20 44 -11 -6 14
-23 12 -38 24 -35 27 10 10 66 -16 114 -53 41 -32 40 -30 -13 21 -33 31 -50
51 -38 45 19 -9 22 -8 16 6 -5 14 -2 14 23 -2 26 -17 27 -17 15 -1 -12 15 -11
17 5 18 11 1 1 7 -21 14 l-40 13 30 4 30 5 -30 2 c-37 2 -71 20 -40 22 12 0 3
6 -20 14 -38 12 -38 13 -11 14 37 1 31 7 -16 14 -35 5 -40 2 -74 -36z"/>
<path d="M926 1402 c-2 -4 11 -6 30 -4 19 2 34 6 34 8 0 8 -59 4 -64 -4z"/>
<path d="M875 1360 c-4 -7 3 -8 22 -4 38 9 42 14 10 14 -14 0 -29 -5 -32 -10z"/>
<path d="M498 1353 c7 -3 16 -2 19 1 4 3 -2 6 -13 5 -11 0 -14 -3 -6 -6z"/>
<path d="M352 1210 c0 -14 2 -19 5 -12 2 6 2 18 0 25 -3 6 -5 1 -5 -13z"/>
<path d="M2292 1194 c-21 -15 -22 -20 -22 -215 l0 -201 -29 -29 c-39 -39 -90
-39 -144 -2 -45 31 -70 24 -75 -21 -8 -61 111 -119 196 -96 51 13 97 51 122
101 18 34 20 60 20 248 0 198 -1 211 -19 221 -25 13 -22 13 -49 -6z"/>
<path d="M4386 1194 c-14 -13 -16 -52 -16 -274 l0 -260 24 -15 c19 -13 29 -14
45 -5 19 10 21 20 21 105 l0 95 100 0 c120 0 140 -12 140 -82 0 -47 27 -100
60 -118 48 -26 89 24 52 63 -11 12 -25 48 -31 81 -6 35 -20 69 -32 82 l-21 22
21 21 c39 39 53 81 49 143 -5 70 -27 104 -88 136 -39 19 -59 22 -176 22 -107
0 -136 -3 -148 -16z m303 -100 c27 -34 27 -89 1 -131 l-20 -33 -105 0 -105 0
0 95 0 95 104 0 c101 0 105 -1 125 -26z"/>
<path d="M2592 1071 c-137 -34 -203 -199 -134 -332 40 -76 100 -113 187 -113
87 0 147 37 187 113 91 174 -56 377 -240 332z m139 -120 c37 -37 39 -42 39
-101 0 -59 -2 -64 -39 -101 -34 -34 -44 -39 -86 -39 -42 0 -52 5 -86 39 -37
37 -39 42 -39 101 0 59 2 64 39 101 34 34 44 39 86 39 42 0 52 -5 86 -39z"/>
<path d="M3094 1069 c-16 -5 -41 -20 -54 -34 l-23 -25 -11 22 c-19 36 -42 45
-65 24 -20 -18 -21 -30 -21 -206 0 -168 2 -189 18 -203 24 -21 35 -21 55 1 12
13 16 47 19 153 3 120 5 140 23 159 29 32 59 41 95 29 38 -14 60 1 60 42 0 44
-33 57 -96 38z"/>
<path d="M3355 1067 c-90 -36 -135 -110 -135 -216 0 -80 23 -134 73 -178 71
-62 158 -65 227 -7 l30 26 0 -35 c0 -20 -3 -43 -6 -52 -17 -42 -115 -58 -194
-30 -50 18 -80 7 -80 -30 0 -31 29 -50 103 -65 107 -22 214 19 248 94 16 36
19 68 19 258 0 184 -2 219 -16 232 -23 24 -43 19 -61 -13 l-17 -29 -36 24
c-43 28 -114 38 -155 21z m154 -103 c52 -44 64 -140 24 -201 -22 -33 -64 -53
-114 -53 -77 0 -132 84 -114 177 4 22 20 50 40 70 29 29 40 33 83 33 40 0 57
-6 81 -26z"/>
<path d="M3850 1068 c-51 -15 -87 -44 -117 -96 -24 -41 -28 -58 -28 -129 0
-74 3 -85 30 -125 53 -75 140 -108 231 -88 67 15 106 45 102 79 -4 32 -34 39
-77 17 -38 -20 -103 -20 -141 -1 -28 14 -60 60 -60 85 0 6 48 10 136 10 74 0
144 5 155 10 38 21 16 125 -39 183 -50 53 -125 75 -192 55z m110 -93 c28 -15
50 -42 50 -64 0 -7 -39 -11 -110 -11 -124 0 -134 7 -81 61 34 34 92 39 141 14z"/>
<path d="M1090 724 c-98 -22 -284 -80 -357 -111 l-33 -13 28 -39 27 -38 40 14
c76 27 280 63 364 63 141 0 350 -63 424 -128 17 -16 20 -15 34 3 23 32 73 133
73 150 0 21 -126 82 -218 106 -106 27 -247 25 -382 -7z"/>
<path d="M1045 524 c-53 -9 -240 -54 -251 -62 -8 -5 -8 -24 -1 -67 l10 -60
151 0 c139 0 157 -2 231 -28 44 -15 103 -40 131 -56 l52 -28 46 34 c51 37 146
130 146 143 0 14 -107 69 -187 96 -62 21 -101 27 -188 29 -60 2 -123 1 -140
-1z"/>
<path d="M827 261 c-23 -5 -32 -16 -46 -56 -10 -27 -21 -58 -25 -67 -11 -25
43 -33 199 -32 119 1 138 4 225 33 52 18 99 36 104 41 12 12 -94 58 -174 76
-65 14 -231 17 -283 5z"/>
</g>
</svg>
