<?xml version="1.0" standalone="no"?>
<!DOCTYPE svg PUBLIC "-//W3C//DTD SVG 20010904//EN"
 "http://www.w3.org/TR/2001/REC-SVG-20010904/DTD/svg10.dtd">
<svg version="1.0" xmlns="http://www.w3.org/2000/svg"
 width="183.000000pt" height="178.000000pt" viewBox="0 0 183.000000 178.000000"
 preserveAspectRatio="xMidYMid meet">

<g transform="translate(0.000000,178.000000) scale(0.100000,-0.100000)"
fill="#000000" stroke="none">
<path d="M704 1676 c-123 -32 -258 -102 -336 -174 -32 -29 -35 -42 -12 -42 8
0 13 4 9 9 -9 15 54 10 66 -6 14 -16 33 -18 23 -2 -10 17 48 -17 79 -46 15
-14 27 -30 27 -35 0 -5 8 -14 18 -19 15 -8 18 -6 17 9 -1 11 -4 23 -8 26 -15
15 -6 26 10 13 15 -12 16 -12 8 1 -17 29 -24 130 -10 156 l13 25 31 -30 c17
-17 31 -41 31 -53 0 -19 2 -20 10 -8 8 12 10 11 10 -7 0 -12 5 -23 11 -25 7
-2 11 -41 12 -101 1 -80 3 -93 12 -69 5 16 18 37 28 46 16 17 17 16 17 -1 0
-10 9 -1 19 22 11 22 20 34 20 26 1 -8 8 -4 20 10 l20 24 -5 -25 c-5 -25 -5
-24 11 3 9 15 20 25 26 21 5 -3 16 0 24 6 21 17 19 3 -6 -39 l-21 -36 27 33
c14 17 36 37 48 44 l22 11 -20 -23 -20 -23 25 7 c25 7 25 7 5 -10 -19 -16 -19
-16 10 -11 27 5 28 4 10 -9 -10 -8 -31 -14 -46 -14 -15 0 -30 -3 -33 -8 -2 -4
13 -6 35 -4 47 5 51 -4 7 -17 l-33 -9 29 -1 29 -1 -39 -26 c-51 -35 -51 -34
-34 -44 11 -7 8 -10 -13 -15 -15 -4 -25 -11 -22 -15 3 -5 -4 -15 -15 -23 -31
-21 -9 -26 100 -20 72 4 96 2 104 -9 6 -7 22 -19 36 -25 23 -10 19 -12 -35
-14 -33 -1 -46 -4 -30 -6 98 -11 117 -22 145 -77 11 -22 12 -30 3 -33 -7 -2
-9 -11 -6 -19 3 -8 -1 -14 -11 -14 -9 0 -16 4 -16 8 0 4 -9 8 -21 9 -12 1 -27
10 -35 20 -7 10 -14 13 -14 6 0 -13 -57 16 -93 46 -16 14 -17 13 -11 -4 5 -13
4 -16 -4 -11 -7 4 -22 9 -33 11 -12 3 -31 12 -42 22 -19 17 -20 17 -14 1 8
-22 3 -22 -31 0 -25 16 -25 14 8 -26 49 -62 80 -105 80 -114 0 -18 -30 -6 -52
20 -29 35 -87 76 -113 81 -20 3 -20 2 1 -21 12 -12 31 -45 43 -73 13 -27 28
-60 34 -72 6 -13 8 -26 5 -29 -4 -3 0 -17 7 -31 10 -19 11 -29 2 -38 -9 -10
-18 -6 -39 19 -15 17 -28 39 -28 48 0 9 -3 18 -7 20 -5 2 -21 29 -38 61 -25
49 -31 54 -37 37 -4 -11 -13 -20 -20 -20 -8 0 -25 -38 -41 -88 -15 -48 -41
-114 -57 -147 -16 -33 -30 -63 -30 -66 0 -3 15 -14 33 -24 l33 -18 163 57
c231 80 384 110 526 103 121 -6 195 -23 298 -68 106 -47 132 -27 142 111 27
335 -181 677 -499 820 -163 74 -375 91 -552 46z"/>
<path d="M270 1404 c-77 -89 -146 -225 -176 -351 -21 -86 -24 -285 -5 -375 7
-38 15 -68 17 -68 2 0 34 16 71 35 57 30 81 37 153 41 47 3 105 1 130 -4 30
-7 48 -8 57 -1 14 12 96 179 112 231 7 21 10 42 6 47 -8 14 -35 2 -35 -15 0
-7 -6 -17 -13 -21 -7 -4 -20 -20 -30 -36 -14 -22 -21 -25 -36 -18 -10 6 -22 7
-26 3 -5 -4 -6 0 -3 9 4 9 2 22 -2 29 -5 8 -3 22 6 34 16 24 19 40 4 31 -11
-7 -2 23 13 43 20 26 -4 25 -31 -1 -16 -15 -31 -24 -35 -20 -4 3 -7 1 -7 -5 0
-7 -5 -12 -11 -12 -5 0 -7 6 -3 13 5 8 2 8 -9 -2 -14 -11 -17 -11 -17 0 0 8
-6 6 -16 -7 -13 -15 -15 -16 -10 -2 4 15 2 15 -27 -2 -23 -14 -33 -16 -39 -7
-5 8 -11 3 -18 -13 -9 -22 -10 -20 -6 15 l5 40 -22 -35 c-12 -19 -26 -36 -32
-37 -5 -1 -18 -5 -27 -8 -11 -4 -18 -3 -18 4 0 6 -7 8 -16 4 -12 -4 -15 -2
-12 8 3 8 13 16 24 17 10 2 23 8 28 12 5 5 -1 6 -13 3 -12 -3 -21 -1 -21 6 0
6 15 11 34 11 19 0 38 5 42 11 4 8 -4 9 -27 4 l-34 -7 29 26 c19 17 46 28 78
32 34 5 46 10 36 16 -8 6 4 8 35 6 26 -2 47 1 47 5 0 5 14 6 31 2 23 -5 36 -2
52 13 12 11 36 22 52 25 17 2 -1 2 -39 1 -68 -4 -69 -3 -51 16 22 25 9 26 -18
3 -18 -16 -20 -16 -14 -1 7 20 -20 18 -34 -3 -7 -12 -9 -12 -9 1 0 9 7 26 16
38 8 12 11 22 6 22 -6 0 -17 -17 -26 -37 l-17 -38 4 33 c2 17 0 32 -5 32 -4 0
-8 -17 -8 -37 0 -38 -14 -36 -23 2 -3 13 -5 7 -7 -15 -1 -19 -4 -29 -7 -22 -2
6 -12 12 -20 12 -12 0 -13 3 -4 14 10 11 8 15 -6 19 -15 3 -15 5 -3 9 58 22
57 21 25 28 -21 5 -24 8 -10 10 19 1 19 2 1 9 -19 7 -19 8 -1 15 16 6 17 9 5
16 -23 15 17 12 63 -4 49 -18 47 -12 -4 14 -23 12 -39 24 -36 27 11 11 73 -19
111 -52 21 -19 41 -35 45 -35 3 1 -20 25 -52 54 -56 51 -57 53 -30 51 16 -1
35 -5 41 -9 7 -4 12 -3 12 3 0 5 -6 12 -12 14 -7 3 -4 6 7 7 13 1 6 7 -20 15
l-40 13 35 2 c39 2 34 5 -25 15 -32 6 -36 9 -20 15 16 6 12 8 -20 15 l-40 8
30 7 c30 8 30 8 3 9 -14 0 -33 3 -41 7 -8 3 -27 -10 -47 -32z"/>
<path d="M855 1310 c-4 -7 3 -8 22 -4 38 9 42 14 10 14 -14 0 -29 -5 -32 -10z"/>
<path d="M478 1303 c7 -3 16 -2 19 1 4 3 -2 6 -13 5 -11 0 -14 -3 -6 -6z"/>
<path d="M425 1190 c-3 -6 1 -7 9 -4 18 7 21 14 7 14 -6 0 -13 -4 -16 -10z"/>
<path d="M550 1110 c0 -5 4 -10 9 -10 6 0 13 5 16 10 3 6 -1 10 -9 10 -9 0
-16 -4 -16 -10z"/>
<path d="M319 1023 c-13 -16 -12 -17 4 -4 16 13 21 21 13 21 -2 0 -10 -8 -17
-17z"/>
<path d="M1070 674 c-124 -28 -380 -113 -380 -126 0 -4 10 -23 22 -42 l22 -34
41 15 c77 28 279 63 366 63 138 0 349 -64 422 -128 17 -16 20 -15 34 3 24 32
73 133 73 150 0 21 -141 87 -231 109 -96 24 -241 20 -369 -10z"/>
<path d="M959 461 c-148 -32 -201 -50 -195 -66 3 -8 8 -36 12 -62 l6 -48 151
0 c166 0 219 -12 354 -78 l62 -30 41 28 c49 34 150 131 150 144 0 15 -105 70
-187 97 -106 36 -270 42 -394 15z"/>
<path d="M812 211 c-29 -5 -36 -12 -51 -56 -10 -27 -21 -57 -25 -66 -5 -11 -1
-19 9 -23 37 -14 206 -18 285 -7 79 12 214 53 234 72 12 11 -95 58 -174 75
-65 14 -216 17 -278 5z"/>
</g>
</svg>
